Coordinates
version=1
nRows=20
nColumns=34
inDegrees=yes

Units are S.I. units (second, meters, Newtons, ...)
Angles are in degrees.

endheader
time	pelvis_tilt	pelvis_list	pelvis_rotation	pelvis_tx	pelvis_ty	pelvis_tz	hip_flexion_r	hip_adduction_r	hip_rotation_r	knee_angle_r	ankle_angle_r	subtalar_angle_r	mtp_angle_r	hip_flexion_l	hip_adduction_l	hip_rotation_l	knee_angle_l	socket_flexion	socket_adduction	socket_rotation	socket_tx	socket_ty	socket_tz	pros_ankle_rx	pros_ankle_ry	pros_ankle_rz	pros_ankle_tx	pros_ankle_ty	pros_ankle_tz	foot_flex	lumbar_extension	lumbar_bending	lumbar_rotation
      0.60416667	     -2.95143674	     -3.55887813	      6.76024854	      0.04653266	      1.01760446	      0.32206753	     22.64050859	      2.91643085	     -8.46834822	      3.37321968	     13.01063508	      7.60346102	      5.35165480	    -10.81746090	     -3.22940109	      5.56913791	    -16.50762700	      0.00000000	      0.00000000	      0.00000000	      0.00000000	      0.00000000	      0.00000000	      0.00000000	      0.00000000	      0.00000000	      0.00000000	      0.00000000	      0.00000000	     13.22826438	    -17.37855074	      0.42304314	    -12.38782004
      0.60833333	     -2.88843297	     -3.62325364	      6.94110057	      0.05277971	      1.01668598	      0.32210634	     22.66942801	      2.95971879	     -8.18935913	      3.01610692	     12.79055695	      7.67812555	      5.38015146	    -10.98727341	     -3.38696264	      5.66954428	    -16.94071481	      0.00000000	      0.00000000	      0.00000000	      0.00000000	      0.00000000	      0.00000000	      0.00000000	      0.00000000	      0.00000000	      0.00000000	      0.00000000	      0.00000000	     13.22909413	    -17.33109265	      0.55264785	    -12.38677464
      0.61250000	     -2.84195867	     -3.69207482	      7.07918322	      0.05884658	      1.01573992	      0.32210624	     22.83487557	      2.99486065	     -7.93512951	      2.42563955	     12.29337446	      7.73098028	      5.46045585	    -11.09520575	     -3.52757291	      5.70146681	    -17.44794539	      0.00000000	      0.00000000	      0.00000000	      0.00000000	      0.00000000	      0.00000000	      0.00000000	      0.00000000	      0.00000000	      0.00000000	      0.00000000	      0.00000000	     13.32535841	    -17.42079728	      0.87200974	    -12.39674384
      0.61666667	     -2.99056838	     -3.79096483	      7.22808151	      0.06511413	      1.01452032	      0.32219469	     23.25772650	      3.02331697	     -7.89898994	      1.74037336	     11.40136643	      7.73964914	      8.86164058	    -10.95607934	     -3.68660493	      5.75860150	    -18.02994961	      0.00000000	      0.00000000	      0.00000000	      0.00000000	      0.00000000	      0.00000000	      0.00000000	      0.00000000	      0.00000000	      0.00000000	      0.00000000	      0.00000000	     13.34133930	    -17.19391786	      1.04596081	    -12.42662868
      0.62083333	     -2.88885494	     -3.91295916	      7.33910442	      0.07127756	      1.01374083	      0.32227237	     23.37381039	      3.13888347	     -7.66486102	      1.05395436	     10.89353152	      7.75971917	      8.88846660	    -11.08497857	     -3.88802036	      5.75057213	    -18.60352089	      0.00000000	      0.00000000	      0.00000000	      0.00000000	      0.00000000	      0.00000000	      0.00000000	      0.00000000	      0.00000000	      0.00000000	      0.00000000	      0.00000000	     13.34359903	    -17.27434861	      1.34494700	    -12.40917568
      0.62500000	     -2.81665740	     -4.05893567	      7.43207953	      0.07750391	      1.01294674	      0.32240793	     23.56154148	      3.27854592	     -7.49979666	      0.27152457	     10.30130182	      7.72874978	      8.98099706	    -11.15701742	     -4.11064580	      5.70290597	    -19.22750242	      0.00000000	      0.00000000	      0.00000000	      0.00000000	      0.00000000	      0.00000000	      0.00000000	      0.00000000	      0.00000000	      0.00000000	      0.00000000	      0.00000000	     13.31675306	    -17.35968678	      1.61727285	    -12.35132928
      0.62916667	     -2.73387582	     -4.20714304	      7.51202584	      0.08370694	      1.01222050	      0.32253790	     23.74185466	      3.42626580	     -7.32559546	     -0.55155404	      9.72180306	      7.68976527	      9.10144413	    -11.20521668	     -4.32673750	      5.65793929	    -19.90824596	      0.00000000	      0.00000000	      0.00000000	      0.00000000	      0.00000000	      0.00000000	      0.00000000	      0.00000000	      0.00000000	      0.00000000	      0.00000000	      0.00000000	     13.27786025	    -17.40308651	      1.91659596	    -12.26767658
      0.63333333	     -2.65913972	     -4.37824452	      7.55659510	      0.08986600	      1.01151309	      0.32272862	     23.99262870	      3.60194612	     -7.20694300	     -1.48971329	      9.07521841	      7.61085793	      9.28572761	    -11.21326486	     -4.56022904	      5.55846870	    -20.64667610	      0.00000000	      0.00000000	      0.00000000	      0.00000000	      0.00000000	      0.00000000	      0.00000000	      0.00000000	      0.00000000	      0.00000000	      0.00000000	      0.00000000	     13.21342225	    -17.46974278	      2.22810542	    -12.13969524
      0.63750000	     -2.74303572	     -4.53811266	      7.58210503	      0.09619059	      1.01058581	      0.32293344	     24.48846281	      3.71434450	     -7.34645613	     -2.57003126	      8.15194895	      7.70202910	     13.16191374	    -11.02704362	     -4.75366900	      5.46426664	    -21.44752577	      0.00000000	      0.00000000	      0.00000000	      0.00000000	      0.00000000	      0.00000000	      0.00000000	      0.00000000	      0.00000000	      0.00000000	      0.00000000	      0.00000000	     13.11408700	    -17.26256502	      2.46254980	    -11.87071993
      0.64166667	     -2.61138427	     -4.73636943	      7.59554164	      0.10236416	      1.01007124	      0.32317423	     24.67566470	      3.93703850	     -7.27036325	     -3.54627908	      7.54383943	      7.61437944	     13.15982080	    -11.03770322	     -5.01194811	      5.32218933	    -22.28633215	      0.00000000	      0.00000000	      0.00000000	      0.00000000	      0.00000000	      0.00000000	      0.00000000	      0.00000000	      0.00000000	      0.00000000	      0.00000000	      0.00000000	     12.98506464	    -17.40124037	      2.82833345	    -11.76471106
      0.64583333	     -2.49343366	     -4.94770920	      7.59873592	      0.10856363	      1.00958674	      0.32344600	     24.90399021	      4.16726849	     -7.25325113	     -4.59333382	      6.95466571	      7.50947758	     13.19968075	    -11.00599440	     -5.28266280	      5.15160015	    -23.16713043	      0.00000000	      0.00000000	      0.00000000	      0.00000000	      0.00000000	      0.00000000	      0.00000000	      0.00000000	      0.00000000	      0.00000000	      0.00000000	      0.00000000	     12.81570928	    -17.51393029	      3.17624110	    -11.57513744
      0.65000000	     -2.38166325	     -5.16640151	      7.57187087	      0.11475675	      1.00916298	      0.32372609	     25.13314383	      4.41177407	     -7.24353752	     -5.64559392	      6.40370845	      7.41839801	     13.25086793	    -10.93800740	     -5.54742805	      4.96442072	    -24.10252630	      0.00000000	      0.00000000	      0.00000000	      0.00000000	      0.00000000	      0.00000000	      0.00000000	      0.00000000	      0.00000000	      0.00000000	      0.00000000	      0.00000000	     12.61325223	    -17.62816673	      3.54575915	    -11.37631368
      0.65416667	     -2.26100258	     -5.38628978	      7.52862679	      0.12095614	      1.00879429	      0.32404323	     25.35060200	      4.65995356	     -7.28198228	     -6.70877511	      5.89889643	      7.32590675	     13.31274500	    -10.84696737	     -5.81304694	      4.73622105	    -25.09880618	      0.00000000	      0.00000000	      0.00000000	      0.00000000	      0.00000000	      0.00000000	      0.00000000	      0.00000000	      0.00000000	      0.00000000	      0.00000000	      0.00000000	     12.35437557	    -17.73504464	      3.91224049	    -11.14872566
      0.65833333	     -2.18400581	     -5.63530232	      7.45612162	      0.12721636	      1.00840095	      0.32445973	     25.66271468	      4.92906004	     -7.41139969	     -7.88431701	      5.45403735	      7.25954041	     13.45756866	    -10.69193712	     -6.10220745	      4.50081353	    -26.12330727	      0.00000000	      0.00000000	      0.00000000	      0.00000000	      0.00000000	      0.00000000	      0.00000000	      0.00000000	      0.00000000	      0.00000000	      0.00000000	      0.00000000	     12.06724287	    -17.78500860	      4.22461746	    -10.76479481
      0.66250000	     -2.30759472	     -5.82520984	      7.28525575	      0.13354171	      1.00770000	      0.32499075	     26.26770358	      5.10527385	     -7.63958123	     -9.25387675	      5.26411537	      7.68465187	     14.14357845	    -10.29854133	     -6.28150806	      4.18965551	    -27.23649643	      0.00000000	      0.00000000	      0.00000000	      0.00000000	      0.00000000	      0.00000000	      0.00000000	      0.00000000	      0.00000000	      0.00000000	      0.00000000	      0.00000000	     11.72691270	    -17.55312507	      4.41354712	    -10.13322444
      0.66666667	     -2.14508832	     -6.08460989	      7.21887439	      0.13978731	      1.00758020	      0.32539371	     26.38200045	      5.39636531	     -7.78818355	    -10.25016117	      4.85711909	      7.60487534	     14.21650467	    -10.16889801	     -6.59523198	      3.93666872	    -28.35840410	      0.00000000	      0.00000000	      0.00000000	      0.00000000	      0.00000000	      0.00000000	      0.00000000	      0.00000000	      0.00000000	      0.00000000	      0.00000000	      0.00000000	     11.31846654	    -17.73005420	      4.83881869	    -10.00073194
      0.67083333	     -1.99874316	     -6.35282394	      7.13602986	      0.14607025	      1.00748275	      0.32580364	     26.49293827	      5.69598907	     -7.94462089	    -11.22333438	      4.51738942	      7.55587568	     14.28511992	     -9.99648598	     -6.91347749	      3.65792613	    -29.52097830	      0.00000000	      0.00000000	      0.00000000	      0.00000000	      0.00000000	      0.00000000	      0.00000000	      0.00000000	      0.00000000	      0.00000000	      0.00000000	      0.00000000	     10.87071956	    -17.87385920	      5.23376090	     -9.75436017
      0.67500000	     -1.87108359	     -6.63061759	      7.02667016	      0.15237743	      1.00738831	      0.32626635	     26.61880902	      6.00376833	     -8.13220508	    -12.20455504	      4.23312887	      7.54767602	     14.36324724	     -9.78489112	     -7.24000651	      3.35206380	    -30.71919337	      0.00000000	      0.00000000	      0.00000000	      0.00000000	      0.00000000	      0.00000000	      0.00000000	      0.00000000	      0.00000000	      0.00000000	      0.00000000	      0.00000000	     10.38205043	    -17.99097923	      5.62017353	     -9.41102428
      0.67916667	     -1.77208345	     -6.91151454	      6.88781756	      0.15875040	      1.00731543	      0.32677440	     26.74995720	      6.31177457	     -8.35793419	    -13.15388493	      4.01302254	      7.59998472	     14.45221540	     -9.53008628	     -7.56822122	      3.00630432	    -31.94390278	      0.00000000	      0.00000000	      0.00000000	      0.00000000	      0.00000000	      0.00000000	      0.00000000	      0.00000000	      0.00000000	      0.00000000	      0.00000000	      0.00000000	      9.84767088	    -18.09208592	      6.00293570	     -8.98283092
      0.68333333	     -1.64359958	     -7.18175303	      6.74938839	      0.16508374	      1.00733670	      0.32735223	     26.78548059	      6.64019283	     -8.48119959	    -13.99191508	      3.79499806	      7.62896626	     14.48780541	     -9.28445066	     -7.89343117	      2.67873997	    -33.18294832	      0.00000000	      0.00000000	      0.00000000	      0.00000000	      0.00000000	      0.00000000	      0.00000000	      0.00000000	      0.00000000	      0.00000000	      0.00000000	      0.00000000	      9.22976121	    -18.23986597	      6.34347793	     -8.73733554
